{"title":"Widows' Peak 1994 DVDRip XviD titler","uid":8399152,"size":1035073970,"categoryP":"video","categoryS":"movies","magnet":"?xt=urn:btih:28692fcaf1bdd1466ed1c36535e6fc2674c71264&amp;dn=Widows%27+Peak+1994+DVDRip+XviD+titler&amp;tr=udp%3A%2F%2Ftracker.openbittorrent.com%3A80&amp;tr=udp%3A%2F%2Fopen.demonii.com%3A1337&amp;tr=udp%3A%2F%2Ftracker.coppersurfer.tk%3A6969&amp;tr=udp%3A%2F%2Fexodus.desync.com%3A6969","seeders":0,"leechers":2,"uploader":"movieZ.freak","files":4,"time":1366650053,"description":"SOURCE: DVD5\n &lt;a href=&quot;\nhttp://www.imdb.com/title/tt0111712/&quot; rel=&quot;nofollow&quot; target=&quot;_NEW&quot;&gt;\nhttp://www.imdb.com/title/tt0111712/&lt;/a&gt;\n\n\n-SAMPLE: Yes\n\n-LANGUAGE: English\n\n-SUBTITLE: English\n\n\nDIRECTOR: John Irvin\n\n\nCAST:\n---------\nMia Farrow, Natasha Richardson, Joan Plowright, Adrian Dunbar, Jim Broadbent, Gerard McSorley \n\nPLOT:\n-----------\n***Edwina has just moved into the neighborhood known as &quot;Widows' Peak,&quot; so called due to the prevalent marital status of the residents, who tend to be a rather exclusive bunch. The residents are all curious about their new neighbor, but no one can seem to get much information about her, including queen bee Mrs. DC, whose son is busy wooing Edwina. Miss O'Hare and Edwina have an immediate dislike for each other, however, and soon some accidental encounters begin to look like Edwina is trying to ruin her new rival. The problems escalate and the town is in an uproar, but they get no closer to solving the mystery of the newcomer. ***In the Irish town of Kilshannon in the 1920s, a matriarchal clique of widows tightly sets the rules for behavior. Heading the town's ruling circle is the doughty Mrs. Counihan (Joan Plowright). The only non-widow in town is a reclusive middle-aged spinster, Miss O'Hare (Mia Farrow), who seems to be guarding some kind of secret. Crashing into this provincial coterie is dashing, urbane Edwina Broome (Natasha Richardson), who immediately starts feuding with O'Hare, for no apparent good reason. Broome mangles O'Hare's prize roses and bumps her skiff in a boat race. Counihan's dimwitted son, Godfrey (Adrian Dunbar), proposes marriage to Edwina. Eventually, the true motives of all involved are revealed.\n\n\nGeneral\n-----------\nFormat : AVI\nFormat/Info : Audio Video Interleave\nFile size : 966 MiB\nDuration : 1h 37mn\nOverall bit rate : 1390 Kbps\n\nVideo\n----------\nFormat : MPEG-4 Visual\nFormat profile : Advanced Simple@L5\nFormat settings, BVOP : 1\nFormat settings, QPel : No\nFormat settings, GMC : No warppoints\nFormat settings, Matrix : Custom\nCodec ID : XVID\nCodec ID/Hint : XviD\nDuration : 1h 37mn\nBit rate : 1255 Kbps\nWidth : 656 pixels\nHeight : 368 pixels\nDisplay aspect ratio : 16:9\nFrame rate : 25.000 fps\nColor space : YUV\nChroma subsampling : 4:2:0\nBit depth : 8 bits\nScan type : Progressive\nCompression mode : Lossy\nBits/(Pixel*Frame) : 0.208\nStream size : 872 MiB (90%)\nWriting library : XviD 64\n\nAudio\n-----------\nFormat : MPEG Audio\nFormat version : Version 1\nFormat profile : Layer 3\nMode : Joint stereo\nMode extension : MS Stereo\nCodec ID : 55\nCodec ID/Hint : MP3\nDuration : 1h 37mn\nBit rate mode : Constant\nBit rate : 128 Kbps\nChannel(s) : 2 channels\nSampling rate : 48.0 KHz\nCompression mode : Lossy\nStream size : 88.9 MiB (9%)\nAlignment : Aligned on interleaves\nInterleave, duration : 80 ms (2.00 video frames)\nInterleave, preload duration : 504 ms\nWriting library : LAME3.99r\n\n\n","torrent":{"xt":"urn:btih:28692fcaf1bdd1466ed1c36535e6fc2674c71264","amp;dn":"Widows%27+Peak+1994+DVDRip+XviD+titler","amp;tr":["udp%3A%2F%2Ftracker.openbittorrent.com%3A80","udp%3A%2F%2Fopen.demonii.com%3A1337","udp%3A%2F%2Ftracker.coppersurfer.tk%3A6969","udp%3A%2F%2Fexodus.desync.com%3A6969"],"infoHash":"28692fcaf1bdd1466ed1c36535e6fc2674c71264","infoHashBuffer":{"type":"Buffer","data":[40,105,47,202,241,189,209,70,110,209,195,101,53,230,252,38,116,199,18,100]},"announce":[],"urlList":[]}}